# xmcd
#
# Track frame offsets: 
#        150
#        26377
#        56957
#        87915
#        109977
#        128617
#        154897
#        174185
#
# Disc length: 2981 seconds
#
# Revision: 2
# Processed by: cddbd v1.5.2PL0 Copyright (c) Steve Scherf et al.
# Submitted via: ExactAudioCopy v0.99pb5
#
DISCID=5f0ba308
DTITLE=John Mayall - The Power Of The Blues (Live In Germany 1987)
DYEAR=1987
DGENRE=Blues
TTITLE0=Ridin´ On The L&N
TTITLE1=Help Me
TTITLE2=Racehorse Man
TTITLE3=All Your Love
TTITLE4=Ain´t Got You
TTITLE5=Wild About You
TTITLE6=It Ain´t Right
TTITLE7=Room To Move
EXTD=John Mayall´s Bluesbreakers\n\nRecorded Live At Germany April 198
EXTD=7
EXTT0=
EXTT1=
EXTT2=
EXTT3=
EXTT4=
EXTT5=
EXTT6=
EXTT7=
PLAYORDER=
